#!OML:ASF E:\emotionWalksFemale\Project 1\Capture day 1\Session 1\Female1.ASF
:FULLY-SPECIFIED
:DEGREES
1002
root 8.41639 15.4188 -37.8228 186.709 -189.014 -179.337
lowerback 7.66379 0.834696 1.00524
upperback -5.1238 1.23815 -0.128427
thorax -9.73774 0.529584 -0.89962
lowerneck -6.70654 -4.87116 -7.45698
upperneck 10.6379 -6.24308 4.41849
head 4.66226 -3.11766 2.18276
rclavicle -8.22782e-015 -6.55989e-015
rhumerus -45.843 8.78187 -88.6221
rradius 42.4845
rwrist 5.22034
rhand -14.4816 -40.8533
rfingers 7.12502
rthumb -168.335 469.491
lclavicle -8.22782e-015 -6.55989e-015
lhumerus -48.1334 -2.61146 85.4899
lradius 29.7528
lwrist -13.9923
lhand -7.88586 319.886
lfingers 7.12502
lthumb 18.0187 -10.9282
rfemur -22.1394 1.1231 21.2021
rtibia 53.3805
rfoot -12.3808 -27.515
rtoes 6.66742
lfemur -6.11826 -17.8596 -28.3482
ltibia 20.3666
lfoot -22.8764 22.5174
ltoes -15.1243
1003
root 8.44043 15.4318 -37.8286 186.649 -189.228 -179.076
lowerback 8.20805 0.618592 0.746439
upperback -5.13108 0.922392 -0.107744
thorax -10.081 0.391864 -0.6901
lowerneck -6.67534 -4.76271 -7.40231
upperneck 10.2818 -6.09013 4.37058
head 4.53519 -3.04189 2.17338
rclavicle 4.91216e-015 -1.72943e-014
rhumerus -45.9688 8.17179 -88.0457
rradius 41.0189
rwrist 3.97679
rhand -13.2569 -44.7203
rfingers 7.12502
rthumb -167.154 465.695
lclavicle 4.91216e-015 -1.72943e-014
lhumerus -47.1641 -3.79569 86.7414
lradius 31.1637
lwrist -11.0891
lhand -10.1513 319.528
lfingers 7.12502
lthumb 15.838 -11.1001
rfemur -24.5975 0.091406 20.5887
rtibia 58.2109
rfoot -10.551 -24.9704
rtoes 3.50517
lfemur -5.20479 -17.8004 -28.7092
ltibia 18.7429
lfoot -22.3517 22.1191
ltoes -14.0193
1004
root 8.47011 15.4439 -37.8312 186.367 -189.066 -178.709
lowerback 9.03274 0.637677 0.563033
upperback -5.12184 0.907739 -0.333435
thorax -10.5633 0.384028 -0.838947
lowerneck -6.42574 -4.72674 -7.10983
upperneck 9.75998 -6.08981 4.47887
head 4.32749 -3.02621 2.16985
rclavicle -1.23728e-014 -5.96354e-015
rhumerus -46.3363 7.07855 -87.5155
rradius 39.3871
rwrist 2.61437
rhand -13.6979 -44.09
rfingers 7.12502
rthumb -167.58 466.299
lclavicle -1.23728e-014 -5.96354e-015
lhumerus -46.0119 -5.28723 87.5519
lradius 32.7507
lwrist -7.69342
lhand -10.1361 320.248
lfingers 7.12502
lthumb 15.8526 -10.3808
rfemur -27.0192 -0.520017 19.8122
rtibia 63.3638
rfoot -9.65987 -22.6839
rtoes 1.04076
lfemur -3.78727 -17.6881 -29.3773
ltibia 16.7132
lfoot -21.3867 22.1299
ltoes -13.4958
1005
root 8.49699 15.4616 -37.8226 186.137 -188.788 -178.372
lowerback 9.58554 0.554382 0.163929
upperback -4.97409 0.746538 -0.271431
thorax -10.7383 0.336318 -0.524495
lowerneck -6.59002 -4.59497 -7.4225
upperneck 9.32208 -5.87189 4.63182
head 4.22218 -2.91811 2.28086
rclavicle 1.07227e-014 -1.47101e-014
rhumerus -46.5764 7.08792 -87.0786
rradius 38.0331
rwrist 1.89476
rhand -14.7659 -43.3274
rfingers 7.12502
rthumb -168.609 467.002
lclavicle 1.07227e-014 -1.47101e-014
lhumerus -44.6557 -5.92718 88.2553
lradius 34.6101
lwrist -4.62664
lhand -11.1771 318.417
lfingers 7.12502
lthumb 14.8499 -12.135
rfemur -29.5428 -0.772003 19.1448
rtibia 68.6768
rfoot -9.31637 -20.8069
rtoes 1.06567
lfemur -2.09921 -17.6453 -30.0041
ltibia 14.0727
lfoot -20.0838 22.3638
ltoes -13.4307
1006
root 8.5113 15.4891 -37.8316 185.971 -189.193 -178.051
lowerback 10.3366 0.399977 -0.0424046
upperback -5.01053 0.490546 -0.434892
thorax -11.2333 0.219048 -0.544462
lowerneck -6.06903 -4.6145 -7.32264
upperneck 8.7426 -5.94959 4.82265
head 3.96634 -2.94837 2.33426
rclavicle 6.79207e-015 4.96962e-015
rhumerus -47.1532 5.97527 -86.3339
rradius 36.8716
rwrist 3.87416
rhand -12.8828 -44.7391
rfingers 7.12502
rthumb -166.794 465.699
lclavicle 6.79207e-015 4.96962e-015
lhumerus -43.4376 -7.4125 88.8453
lradius 37.1664
lwrist -0.67432
lhand -10.7804 319.278
lfingers 7.12502
lthumb 15.232 -11.3027
rfemur -32.0793 -1.46252 18.6995
rtibia 74.0399
rfoot -8.92194 -19.8367
rtoes 1.31232
lfemur -0.0444454 -17.5618 -30.3876
ltibia 10.3248
lfoot -17.8976 21.9096
ltoes -14.7544
1007
root 8.53459 15.5206 -37.8136 185.563 -189.469 -177.743
lowerback 10.9963 0.251799 -0.186123
upperback -4.85093 0.252192 -0.564652
thorax -11.453 0.109024 -0.560227
lowerneck -5.91228 -4.64385 -7.3494
upperneck 8.25642 -6.00308 5.0223
head 3.80275 -2.96677 2.40358
rclavicle 7.75299e-015 1.39149e-015
rhumerus -47.8334 5.55918 -86.0308
rradius 35.7831
rwrist 4.33093
rhand -12.5829 -44.9782
rfingers 7.12502
rthumb -166.505 465.479
lclavicle 7.75299e-015 1.39149e-015
lhumerus -41.9287 -8.56327 89.1768
lradius 39.8292
lwrist 2.90142
lhand -11.7372 317.67
lfingers 7.12502
lthumb 14.3103 -12.8434
rfemur -34.2244 -2.08366 18.2451
rtibia 79.373
rfoot -8.66773 -19.6607
rtoes 0.370948
lfemur 4.3919 -17.5826 -30.9593
ltibia 2.7293
lfoot -13.8363 21.4493
ltoes -16.2642
1008
root 8.55193 15.5574 -37.7744 185.298 -189.496 -177.459
lowerback 11.2274 0.241257 -0.615076
upperback -4.75232 0.16528 -0.591613
thorax -11.4832 0.0982248 -0.330274
lowerneck -5.58424 -4.6796 -7.38343
upperneck 7.78978 -6.06075 5.06
head 3.61304 -2.99777 2.42823
rclavicle 1.44096e-014 1.05356e-014
rhumerus -48.7931 5.5225 -85.9338
rradius 34.4508
rwrist 3.57177
rhand -14.123 -42.9286
rfingers 7.12502
rthumb -167.989 467.436
lclavicle 1.44096e-014 1.05356e-014
lhumerus -40.5221 -9.56229 89.5257
lradius 42.6971
lwrist 5.70433
lhand -12.8384 318.486
lfingers 7.12502
lthumb 13.249 -11.9549
rfemur -36.4388 -2.37543 17.8617
rtibia 84.715
rfoot -8.72081 -19.6804
rtoes 0.0590642
lfemur 6.29893 -17.3788 -31.4389
ltibia 4.77083e-014
lfoot -12.6517 21.1424
ltoes -16.0196
1009
root 8.56779 15.5973 -37.7409 184.986 -189.666 -177.314
lowerback 11.5293 0.175412 -0.861228
upperback -4.66632 0.0347717 -0.580407
thorax -11.5684 0.0548329 -0.152589
lowerneck -5.42763 -4.68804 -7.36232
upperneck 7.59291 -6.07369 4.99871
head 3.52601 -3.00775 2.41069
rclavicle 2.637e-015 9.93923e-016
rhumerus -49.6788 5.76997 -86.0139
rradius 32.7044
rwrist 2.57177
rhand -14.7469 -42.4585
rfingers 7.12502
rthumb -168.591 467.872
lclavicle 2.637e-015 9.93923e-016
lhumerus -39.0611 -10.2862 89.6058
lradius 46.0234
lwrist 8.80955
lhand -13.9798 317.381
lfingers 7.12502
lthumb 12.1486 -12.9914
rfemur -38.5613 -2.71465 17.6676
rtibia 89.8814
rfoot -8.88291 -19.6074
rtoes -0.575203
lfemur 6.84681 -17.2962 -31.7426
ltibia -4.13472e-014
lfoot -13.1165 21.0503
ltoes -14.4706
1010
root 8.60902 15.6034 -37.7522 184.978 -188.679 -177.318
lowerback 12.1015 0.428885 -0.604921
upperback -4.78855 0.403135 -0.651005
thorax -12.0514 0.206872 -0.459704
lowerneck -5.2056 -4.74216 -7.51375
upperneck 7.17816 -6.12332 4.83732
head 3.7422 -3.06133 2.65761
rclavicle -1.34296e-014 1.49089e-014
rhumerus -50.8859 6.229 -86.1337
rradius 31.7267
rwrist 2.37888
rhand -14.7664 -41.5111
rfingers 7.12502
rthumb -168.61 468.818
lclavicle -1.34296e-014 1.49089e-014
lhumerus -37.6599 -10.8985 89.6095
lradius 49.7434
lwrist 11.4127
lhand -14.0232 318.381
lfingers 7.12502
lthumb 12.1068 -11.989
rfemur -42.0817 -2.08691 17.3646
rtibia 95.2451
rfoot -8.4289 -19.1353
rtoes -1.25076
lfemur 6.7611 -16.1302 -31.9583
ltibia -4.77083e-014
lfoot -13.6117 20.8932
ltoes -11.8925
1011
root 8.59816 15.6643 -37.686 184.473 -190.411 -177.347
lowerback 12.0147 -0.177874 -0.763472
upperback -4.42221 -0.427 -0.561536
thorax -11.5827 -0.171612 -0.0869529
lowerneck -5.22845 -4.73219 -7.47173
upperneck 6.95038 -6.11306 4.92433
head 3.66792 -3.04989 2.68013
rclavicle 8.78127e-015 1.19271e-015
rhumerus -52.6465 6.29422 -86.051
rradius 32.6676
rwrist 3.53878
rhand -13.2358 -41.3742
rfingers 7.12502
rthumb -167.134 469.042
lclavicle 8.78127e-015 1.19271e-015
lhumerus -35.8613 -11.4059 89.3357
lradius 53.2841
lwrist 13.2302
lhand -14.6133 317.052
lfingers 7.12502
lthumb 11.5377 -13.286
rfemur -43.0947 -3.80284 17.7254
rtibia 99.9394
rfoot -9.34088 -18.793
rtoes 2.42976
lfemur 7.69975 -17.5313 -31.9371
ltibia -3.18055e-014
lfoot -13.1389 21.033
ltoes -14.5331
1012
root 8.61312 15.6983 -37.6544 184.352 -191.006 -177.577
lowerback 12.304 -0.461685 -0.498084
upperback -4.46051 -0.755838 -0.454881
thorax -11.8005 -0.341732 -0.0464973
lowerneck -5.37531 -4.65935 -7.50281
upperneck 7.30693 -6.03107 5.14535
head 3.43704 -2.98415 2.4838
rclavicle -3.76526e-015 -4.77083e-015
rhumerus -53.9986 6.59482 -86.1104
rradius 32.4269
rwrist 3.64211
rhand -12.9145 -41.3445
rfingers 7.12502
rthumb -166.824 469.092
lclavicle -3.76526e-015 -4.77083e-015
lhumerus -34.2298 -11.5411 89.0665
lradius 56.9311
lwrist 15.0701
lhand -14.2243 317.252
lfingers 7.12502
lthumb 11.9128 -13.1068
rfemur -45.3649 -4.62487 18.0658
rtibia 104.662
rfoot -8.80897 -17.4723
rtoes 9.11067
lfemur 7.92198 -17.8884 -31.7436
ltibia -3.65764e-014
lfoot -12.9707 21.0439
ltoes -14.8634
1013
root 8.63195 15.7316 -37.612 184.33 -191.369 -177.782
lowerback 12.1912 -0.650116 -0.243507
upperback -4.51015 -0.959249 -0.398055
thorax -11.7918 -0.454768 -0.0840084
lowerneck -5.20874 -4.61798 -7.58174
upperneck 7.04753 -5.96265 5.02164
head 3.69723 -2.97594 2.744
rclavicle -4.55058e-014 -2.18663e-015
rhumerus -55.3819 6.76513 -86.0821
rradius 32.355
rwrist 4.35837
rhand -12.3358 -40.8394
rfingers 7.12502
rthumb -166.267 469.634
lclavicle -4.55058e-014 -2.18663e-015
lhumerus -32.7452 -11.8319 88.7597
lradius 60.7312
lwrist 16.5478
lhand -14.2484 317.331
lfingers 7.12502
lthumb 11.8896 -13.027
rfemur -47.6868 -5.28881 18.4071
rtibia 109.148
rfoot -11.2876 -17.0696
rtoes -0.877912
lfemur 8.04923 -18.038 -31.5805
ltibia 1.59028e-015
lfoot -13.1217 21.1704
ltoes -14.162
